<?xml version="1.0" standalone="no"?>
<!DOCTYPE svg PUBLIC "-//W3C//DTD SVG 20010904//EN"
 "http://www.w3.org/TR/2001/REC-SVG-20010904/DTD/svg10.dtd">
<svg version="1.0" xmlns="http://www.w3.org/2000/svg"
 width="2577.000000pt" height="2577.000000pt" viewBox="0 0 2577.000000 2577.000000"
 preserveAspectRatio="xMidYMid meet">
<metadata>
Created by potrace 1.14, written by Peter Selinger 2001-2017
</metadata>
<g transform="translate(0.000000,2577.000000) scale(0.100000,-0.100000)"
fill="#000000" stroke="none">
<path d="M22925 20739 c-22 -4 -55 -10 -73 -13 -63 -12 -26 3 -997 -386 -209
-83 -468 -187 -575 -230 -248 -99 -573 -228 -810 -320 -102 -39 -194 -76 -205
-80 -11 -5 -96 -39 -190 -75 -93 -36 -179 -69 -190 -74 -11 -6 -146 -58 -300
-116 -154 -59 -307 -117 -340 -130 -33 -13 -141 -53 -240 -90 -265 -98 -319
-121 -433 -181 -91 -47 -193 -111 -241 -150 -307 -245 -498 -501 -620 -829
-40 -108 -84 -275 -96 -365 -3 -25 -8 -56 -10 -70 -4 -27 -11 -79 -20 -150 -3
-25 -7 -61 -10 -80 -3 -19 -7 -55 -10 -80 -3 -25 -8 -56 -10 -70 -3 -14 -7
-52 -10 -85 -4 -33 -8 -71 -10 -85 -2 -14 -7 -50 -10 -80 -7 -66 -15 -135 -20
-170 -2 -14 -6 -50 -10 -80 -3 -30 -10 -89 -15 -130 -5 -41 -12 -97 -15 -125
-3 -27 -8 -66 -10 -85 -3 -19 -12 -96 -20 -170 -9 -74 -18 -146 -20 -160 -2
-14 -7 -53 -10 -87 -3 -34 -7 -70 -9 -80 -2 -10 -7 -45 -10 -78 -3 -33 -8 -76
-11 -95 -3 -19 -7 -54 -10 -77 -3 -24 -7 -60 -10 -80 -3 -21 -7 -58 -10 -83
-2 -25 -6 -58 -9 -75 -2 -16 -7 -57 -11 -90 -3 -33 -8 -71 -10 -85 -2 -14 -6
-52 -10 -85 -4 -32 -8 -66 -10 -75 -1 -8 -6 -42 -9 -75 -4 -33 -9 -71 -11 -85
-2 -14 -6 -47 -9 -75 -4 -27 -8 -61 -11 -75 -2 -14 -7 -50 -10 -80 -3 -30 -7
-64 -9 -75 -2 -11 -7 -49 -11 -85 -4 -36 -9 -74 -11 -84 -2 -11 -6 -42 -9 -70
-3 -28 -8 -62 -10 -76 -2 -14 -11 -81 -20 -150 -9 -69 -18 -136 -20 -150 -2
-14 -7 -45 -10 -70 -3 -25 -8 -56 -10 -70 -2 -14 -9 -63 -15 -110 -6 -47 -13
-96 -16 -110 -2 -14 -6 -43 -9 -65 -8 -61 -16 -117 -20 -145 -2 -14 -7 -45
-10 -70 -3 -25 -7 -56 -10 -70 -3 -14 -7 -41 -10 -60 -4 -34 -10 -71 -19 -135
-3 -16 -8 -52 -12 -80 -3 -27 -8 -59 -10 -70 -2 -10 -6 -37 -9 -60 -4 -22 -8
-51 -10 -65 -2 -14 -11 -70 -20 -125 -9 -55 -18 -112 -20 -126 -3 -15 -7 -44
-10 -65 -3 -22 -7 -50 -10 -64 -3 -14 -8 -45 -11 -70 -3 -25 -8 -54 -10 -65
-5 -25 -31 -179 -38 -225 -3 -19 -8 -46 -10 -60 -3 -14 -7 -41 -10 -60 -3 -19
-17 -100 -31 -180 -15 -80 -32 -181 -40 -225 -8 -44 -21 -120 -30 -170 -9 -49
-18 -99 -20 -110 -2 -11 -18 -96 -35 -190 -18 -93 -34 -183 -37 -200 -2 -16
-15 -85 -29 -153 -13 -68 -26 -138 -29 -155 -3 -18 -8 -39 -10 -47 -2 -8 -7
-35 -10 -60 -4 -24 -8 -47 -10 -50 -2 -3 -6 -26 -10 -50 -4 -25 -20 -108 -35
-185 -16 -77 -32 -153 -34 -170 -3 -16 -17 -84 -30 -150 -14 -66 -27 -131 -30
-145 -2 -14 -10 -49 -16 -78 -7 -30 -13 -60 -14 -68 -1 -7 -4 -16 -7 -18 -2
-3 -475 1405 -1049 3127 -669 2004 -1060 3164 -1088 3222 -97 202 -259 404
-417 520 -22 17 -42 32 -45 36 -5 5 -67 46 -115 76 -132 82 -375 168 -540 190
-73 10 -343 10 -405 1 -110 -17 -240 -51 -324 -83 -33 -13 -149 -55 -256 -93
-516 -186 -897 -324 -915 -332 -11 -5 -108 -40 -215 -78 -670 -240 -690 -248
-785 -293 -189 -92 -344 -278 -420 -504 -13 -38 -128 -583 -171 -805 -3 -14
-20 -97 -39 -185 -18 -88 -36 -173 -39 -190 -2 -16 -11 -61 -19 -100 -50 -242
-80 -382 -83 -397 -2 -10 -6 -26 -8 -35 -9 -42 -66 -310 -70 -333 -2 -14 -10
-47 -16 -75 -7 -27 -14 -59 -15 -70 -2 -11 -6 -31 -9 -45 -19 -85 -36 -160
-40 -183 -5 -30 -55 -263 -62 -292 -10 -43 -36 -161 -40 -185 -2 -14 -8 -43
-14 -65 -11 -48 -69 -311 -75 -346 -10 -50 -14 -71 -19 -87 -3 -9 -8 -29 -11
-44 -9 -50 -14 -71 -96 -439 -96 -433 -79 -356 -129 -574 -22 -99 -43 -191
-46 -205 -3 -14 -14 -61 -24 -105 -10 -44 -21 -91 -24 -105 -3 -14 -7 -34 -10
-45 -2 -11 -10 -42 -16 -70 -6 -27 -14 -59 -16 -70 -3 -11 -7 -31 -10 -44 -3
-14 -18 -79 -34 -145 -16 -67 -36 -152 -45 -191 -9 -38 -18 -78 -21 -87 -2
-10 -6 -26 -8 -35 -2 -10 -14 -58 -26 -108 -12 -49 -23 -97 -25 -105 -9 -43
-107 -451 -117 -490 -7 -25 -13 -47 -13 -50 -9 -48 -41 -170 -45 -170 -16 1
-359 1101 -464 1490 -8 30 -26 96 -40 145 -54 198 -133 497 -146 555 -5 19
-20 80 -34 135 -15 55 -28 109 -31 120 -2 11 -11 47 -19 80 -9 33 -39 157 -67
275 -58 246 -53 223 -73 319 -9 40 -18 76 -20 80 -2 3 -7 22 -10 41 -3 19 -17
85 -31 145 -32 139 -65 291 -71 330 -3 17 -9 44 -14 60 -5 17 -25 111 -45 210
-20 99 -43 207 -50 240 -8 33 -16 74 -19 90 -10 55 -16 85 -55 278 -22 106
-42 210 -47 232 -4 22 -8 45 -9 50 -2 6 -13 57 -25 115 -46 217 -131 379 -280
530 -169 172 -238 209 -660 354 -189 66 -652 227 -845 296 -44 16 -134 47
-200 70 -66 23 -163 57 -215 75 -166 59 -430 152 -570 200 -74 25 -144 50
-155 55 -11 4 -49 18 -85 30 -36 12 -74 26 -85 30 -11 4 -72 26 -135 48 -63
22 -185 65 -270 95 -768 273 -871 309 -910 324 -8 4 -17 7 -20 8 -3 1 -12 4
-20 7 -181 69 -267 87 -374 83 -159 -6 -281 -76 -340 -194 -72 -142 -73 -278
-2 -596 25 -115 56 -246 67 -289 12 -44 23 -90 25 -102 9 -47 106 -418 169
-644 36 -129 67 -242 69 -250 20 -80 273 -921 314 -1040 3 -8 6 -19 8 -25 15
-61 313 -956 424 -1275 45 -129 93 -266 106 -305 13 -38 28 -79 33 -90 5 -11
28 -74 51 -140 22 -66 45 -129 50 -140 13 -31 210 -568 215 -585 2 -8 62 -166
133 -350 176 -455 183 -472 192 -495 5 -11 65 -159 134 -330 68 -170 132 -328
142 -350 10 -22 19 -44 20 -50 2 -10 126 -302 144 -340 5 -11 44 -99 86 -195
42 -96 106 -238 141 -315 36 -77 78 -168 93 -201 102 -222 467 -937 535 -1049
6 -11 27 -47 45 -80 83 -150 125 -223 218 -380 173 -291 342 -555 623 -970
235 -347 401 -486 602 -501 116 -9 2535 -10 2611 -1 446 54 750 317 1030 892
51 105 96 204 96 210 0 3 9 24 19 48 66 146 269 725 296 847 2 8 4 16 5 18 2
1 3 5 5 10 1 4 4 14 7 22 6 15 109 377 112 395 1 6 9 35 18 65 9 30 46 163 83
295 74 264 210 739 251 880 15 50 27 95 29 100 1 6 9 35 18 65 9 30 97 336
197 680 99 344 191 661 205 705 27 90 190 649 198 680 3 11 44 151 92 310 47
160 88 297 90 305 2 8 19 69 39 135 21 66 39 128 41 138 3 9 7 25 9 35 3 9 17
59 33 110 l27 94 12 -49 c6 -26 30 -131 53 -233 24 -102 45 -193 47 -202 2
-10 6 -26 8 -37 2 -10 19 -81 36 -157 17 -77 34 -150 36 -164 3 -14 16 -70 29
-125 22 -90 104 -451 160 -705 2 -8 13 -58 25 -110 12 -52 30 -133 40 -180 14
-65 63 -274 94 -405 1 -5 8 -37 15 -70 7 -33 22 -98 33 -145 11 -47 22 -96 24
-110 3 -14 10 -43 16 -65 5 -22 12 -51 14 -65 3 -14 7 -33 10 -42 3 -10 7 -28
9 -40 3 -13 30 -131 61 -263 31 -132 62 -268 69 -301 7 -34 21 -90 29 -125 9
-35 18 -73 20 -84 6 -32 95 -394 148 -605 27 -107 51 -205 54 -218 30 -147
218 -809 306 -1082 58 -180 150 -432 184 -508 13 -29 24 -55 24 -58 0 -3 29
-65 64 -138 230 -475 471 -699 801 -743 28 -4 835 -7 1795 -7 1641 -1 1751 0
1850 17 224 39 400 110 574 231 108 76 269 225 352 328 32 40 61 75 64 78 30
30 186 254 267 385 18 28 144 249 183 319 39 71 209 411 240 481 22 49 59 129
105 230 12 28 42 95 65 150 23 55 51 120 62 145 11 24 33 76 48 115 41 104
139 347 149 370 19 42 71 180 71 188 0 4 8 26 19 50 10 23 23 56 29 72 6 17
26 71 45 120 79 203 449 1259 460 1310 2 6 8 24 14 40 10 28 82 245 231 705
76 234 145 452 148 465 1 6 11 37 22 70 47 141 395 1274 407 1325 2 8 20 69
40 135 21 66 39 127 40 135 2 8 27 92 55 185 28 94 62 208 75 255 13 47 63
218 110 380 48 162 89 304 92 315 3 11 35 124 70 250 61 218 230 833 239 865
2 8 28 107 59 220 30 113 73 273 95 355 21 83 46 177 55 210 9 33 18 67 20 75
67 258 98 379 102 395 5 22 5 24 21 80 6 22 13 51 16 65 3 14 14 61 26 105 11
44 22 93 25 109 3 16 10 37 16 47 5 11 8 19 5 19 -3 0 4 30 14 68 10 37 21 78
24 92 3 14 21 90 41 170 19 80 37 154 39 165 2 11 9 40 16 65 7 25 13 52 15
60 2 8 21 92 43 185 22 94 44 186 48 205 4 19 8 37 9 40 1 3 4 19 8 35 4 17 9
39 11 50 3 16 67 305 92 415 3 14 8 34 10 45 2 11 13 61 24 110 11 50 22 101
24 115 2 14 11 57 20 95 8 39 17 82 19 95 3 14 16 84 31 155 14 72 27 141 30
155 2 14 14 72 25 130 11 58 23 121 26 140 10 64 27 157 40 220 2 14 7 41 10
60 3 19 7 46 10 60 3 14 7 48 11 75 3 28 7 52 9 55 2 3 6 29 10 59 4 30 8 61
10 70 8 45 21 138 30 210 4 30 8 62 10 72 2 10 7 49 10 86 4 37 9 76 11 87 12
63 19 179 19 296 -1 150 -19 233 -76 340 -63 119 -204 231 -319 254 -14 3 -36
8 -50 11 -39 10 -210 13 -255 4z"/>
</g>
</svg>
